<?xml version="1.0" encoding="utf-8"?>
<!-- Generator: Adobe Illustrator 25.3.0, SVG Export Plug-In . SVG Version: 6.00 Build 0)  -->
<svg version="1.1" id="Layer_1" focusable="false" xmlns="http://www.w3.org/2000/svg" xmlns:xlink="http://www.w3.org/1999/xlink"
	 x="0px" y="0px" viewBox="0 0 576 512" style="enable-background:new 0 0 576 512;" xml:space="preserve">
<style type="text/css">
	.st0{fill:#015C8F;}
</style>
<path class="st0" d="M461.3,205.3h-103L263.4,59.6c-2.6-4-7.3-6.3-12.5-6.3h-59.1c-9.6,0-16.5,8-13.9,16.1l44.3,135.9h-92.8
	l-39-45.6c-2.7-3.2-7-5.1-11.5-5.1h-36c-9.4,0-16.3,7.8-14,15.7L57.1,256l-28.4,85.7c-2.3,7.9,4.6,15.7,14,15.7h36
	c4.5,0,8.9-1.9,11.5-5.1l39-45.6H222l-44.3,135.8c-2.6,8,4.3,16.2,13.9,16.2h59.1c5.2,0,9.9-2.5,12.5-6.3L358,306.8h103.1
	c31.9,0,86.7-22.7,86.7-50.7S493.2,205.3,461.3,205.3z"/>
</svg>
